<svg width="200" height="200" viewBox="0 0 200 200" fill="none" xmlns="http://www.w3.org/2000/svg">
<path fill-rule="evenodd" clip-rule="evenodd" d="M45 90C69.8528 90 90 69.8528 90 45C90 20.1472 69.8528 0 45 0C20.1472 0 0 20.1472 0 45C0 69.8528 20.1472 90 45 90ZM45 200C69.8528 200 90 179.853 90 155C90 130.147 69.8528 110 45 110C20.1472 110 0 130.147 0 155C0 179.853 20.1472 200 45 200ZM200 45C200 69.8528 179.853 90 155 90C130.147 90 110 69.8528 110 45C110 20.1472 130.147 0 155 0C179.853 0 200 20.1472 200 45ZM155 200C179.853 200 200 179.853 200 155C200 130.147 179.853 110 155 110C130.147 110 110 130.147 110 155C110 179.853 130.147 200 155 200Z" fill="black"/>
</svg>
