<svg width="66" height="74" viewBox="0 0 66 74" fill="none" xmlns="http://www.w3.org/2000/svg">
<g filter="url(#filter0_d)">
<path d="M30.941 57.8821C45.8202 57.8821 57.8821 45.8202 57.8821 30.941C57.8821 16.0619 45.8202 4 30.941 4C16.0619 4 4 16.0619 4 30.941C4 45.8202 16.0619 57.8821 30.941 57.8821Z" fill="#2348C2"/>
</g>
<path d="M25.9049 16.0034L25.9609 35.5969L21.8183 35.6088L21.7737 19.9474L21.6588 19.9478L17.1798 22.7733L17.1694 19.0995L22.0111 16.0146L25.9049 16.0034Z" fill="white"/>
<path d="M27.5186 45.0546L28.4082 42.2052L36.9903 38.1194C38.0973 37.5698 38.9672 37.063 39.5997 36.599C40.2324 36.135 40.6646 35.5316 40.8965 34.7888C41.1532 33.9669 41.0816 33.2329 40.682 32.5871C40.2903 31.9369 39.6834 31.4835 38.8615 31.227C38.0092 30.9608 37.2404 31.0047 36.5554 31.3588C35.8782 31.7086 35.4029 32.3319 35.1296 33.2289L31.3761 32.0569C31.7581 30.8332 32.3668 29.8574 33.2022 29.1292C34.0375 28.4012 35.0284 27.9453 36.1747 27.7621C37.3272 27.5807 38.558 27.6944 39.867 28.1029C41.2063 28.5211 42.298 29.1227 43.1422 29.9074C43.9944 30.6879 44.5672 31.5816 44.8609 32.5888C45.1563 33.5897 45.1349 34.6321 44.7966 35.7157C44.5761 36.422 44.2184 37.0755 43.7236 37.6759C43.2287 38.2765 42.497 38.8867 41.5285 39.5063C40.5678 40.1217 39.2627 40.8135 37.6132 41.5814L34.0471 43.4047L34.0073 43.5325L41.8612 45.9845L40.8519 49.2174L27.5186 45.0546Z" fill="white"/>
<path d="M41.9582 69.8079C41.2133 68.5813 40.7628 67.3663 40.6065 66.1628C40.4503 64.9593 40.58 63.8582 40.9958 62.8594C41.4117 61.8607 42.1008 61.0542 43.0633 60.4397L45.2284 64.0052C44.6379 64.4085 44.3132 64.9862 44.2549 65.7381C44.1999 66.4953 44.4091 67.2637 44.8824 68.0433C45.3758 68.8555 45.9851 69.392 46.7108 69.653C47.4449 69.9159 48.1431 69.8427 48.8049 69.4334C49.4842 69.0283 49.8675 68.4187 49.9551 67.6043C50.0515 66.7922 49.8115 65.9118 49.2355 64.9633L48.287 63.4013L50.8874 61.8222L51.8359 63.3842C52.3259 64.1911 52.9265 64.7255 53.6377 64.9874C54.3545 65.2462 55.0411 65.1725 55.6973 64.7665C56.3332 64.3879 56.7132 63.8585 56.8375 63.1787C56.9651 62.5042 56.8121 61.8099 56.3786 61.0957C55.9381 60.3706 55.3716 59.8678 54.6788 59.587C53.986 59.3063 53.314 59.3488 52.663 59.7142L50.6022 56.3206C51.5769 55.751 52.5947 55.5099 53.655 55.5973C54.7209 55.6812 55.7358 56.0499 56.6996 56.7032C57.6667 57.3621 58.4981 58.2638 59.1933 59.4087C59.8951 60.5644 60.2993 61.7033 60.4059 62.825C60.5125 63.9467 60.3545 64.9643 59.9317 65.8776C59.5176 66.7932 58.8673 67.5164 57.9808 68.0473C57.0465 68.6221 56.087 68.8055 55.1025 68.5975C54.1213 68.3948 53.2615 67.876 52.5231 67.041L52.3923 67.1205C52.9878 68.4453 53.132 69.6412 52.8249 70.7081C52.521 71.7808 51.8469 72.6304 50.8024 73.2573C49.8515 73.8421 48.8366 74.0815 47.7576 73.9757C46.6817 73.8754 45.6366 73.4692 44.6221 72.757C43.6076 72.0448 42.7197 71.0618 41.9582 69.8079Z" fill="black"/>
<defs>
<filter id="filter0_d" x="0" y="0" width="65.8821" height="65.8821" filterUnits="userSpaceOnUse" color-interpolation-filters="sRGB">
<feFlood flood-opacity="0" result="BackgroundImageFix"/>
<feColorMatrix in="SourceAlpha" type="matrix" values="0 0 0 0 0 0 0 0 0 0 0 0 0 0 0 0 0 0 127 0"/>
<feOffset dx="2" dy="2"/>
<feGaussianBlur stdDeviation="3"/>
<feColorMatrix type="matrix" values="0 0 0 0 0 0 0 0 0 0 0 0 0 0 0 0 0 0 0.25 0"/>
<feBlend mode="normal" in2="BackgroundImageFix" result="effect1_dropShadow"/>
<feBlend mode="normal" in="SourceGraphic" in2="effect1_dropShadow" result="shape"/>
</filter>
</defs>
</svg>
