<svg width="205" height="205" viewBox="0 0 205 205" fill="none" xmlns="http://www.w3.org/2000/svg">
<mask id="mask0" mask-type="alpha" maskUnits="userSpaceOnUse" x="0" y="0" width="205" height="205">
<rect width="205" height="205" fill="#BABABA"/>
</mask>
<g mask="url(#mask0)">
<path fill-rule="evenodd" clip-rule="evenodd" d="M102.554 169.896L63.0583 197.072C47.5236 207.761 27.1825 192.982 32.548 174.905L46.189 128.945L8.13835 99.7799C-6.82806 88.3086 0.941536 64.3963 19.7923 63.9128L67.7185 62.6837L83.6975 17.483C89.9824 -0.295738 115.125 -0.295723 121.41 17.483L137.389 62.6837L185.316 63.9128C204.166 64.3963 211.936 88.3086 196.969 99.7799L158.919 128.945L172.56 174.905C177.925 192.982 157.584 207.761 142.049 197.072L102.554 169.896Z" fill="black"/>
</g>
</svg>
